<svg xmlns="http://www.w3.org/2000/svg" width="963.64" height="887.34" viewBox="0 0 963.64 887.34"><circle cx="154.89" cy="255.51" r="57.87" fill="red"/><polygon points="110.64 324.96 203.23 324.96 186.21 467.6 127.32 481.89 110.64 324.96" fill="#898989"/><polygon points="135.15 554.07 177.36 551.34 159.32 670.49 154.89 669.47 135.15 554.07" fill="#898989"/><path d="M356.94,334.32s-49.54-2-55.15,5.62a31.4,31.4,0,0,0-6.13,14.81V635.6l-40.34-1,1.53-287.49s-2.67-35.51,32.88-47.12c32.48-1.91,67.21.65,67.21.65Z" fill="#898989"/><path d="M109.79,563.09s9.7-.51,8.17,9.19S83.23,581,83.23,581s-50.21,2-53-12c-1.59-7.81-.56-39.63,22.93-56,0,0,13.61-3.57,56.85-9.7,39.77-5.64,77.27-13.28,77.27-13.28s30.81-5.61,57.88-33.7,84.76-59.74,92.93-60.25,118-8.55,149.62-7.15,64.21,10.5,100.6,33.7c35.21,26.4,35.84,34.74,60.5,41.65s51.33.42,67.67,25.6l9.19,55.3s7.76,16.78,1.83,20.39-25.32,2.08-25.32,2.08-40.85-1.53-47-5.62-1-12.39,8.44-9.76,46.09,5.23,46.71,1.08-8.37-48.89-20.78-53.55-41.58-1.1-56.61-5.43c-21.68-3.31-79.89-46.21-96.23-47.23,0,0-84.58-17.91-137.87-15.32s-48.45-.43-58.72,3.58-71.19,45-86.81,56.17-38.47,18.89-103.66,28.08c-55.62,7.84-73.53,1-85.28,7.15s-23.69,33.95-19.91,36.26C63.66,574.83,109.79,563.09,109.79,563.09Z" fill="red"/><text transform="translate(363.26 348.69)" font-size="74.99" font-family="PowerGeezUnicode1, Power Geez Unicode1">መፈአኤ</text><path d="M481.53,603.81c-2.24-3.87-5.49-8.17-11.62-18.13-11.13-18.09-12.25-40-15.06-47h0a67,67,0,1,0-10.44,59.84c3.67,2.83,10.92,12.21,13.76,16,5.36,7.15,12.9,15.31,22.21,9.45C488.3,619,484.34,608.66,481.53,603.81Zm-90.76-4.2A41.25,41.25,0,1,1,432,558.36,41.25,41.25,0,0,1,390.77,599.61Z"/><path d="M665.87,603.81c-2.24-3.87-5.49-8.17-11.61-18.13-11.14-18.09-12.26-40-15.07-47h0a67,67,0,1,0-10.44,59.84c3.67,2.83,10.92,12.21,13.76,16,5.36,7.15,12.9,15.31,22.21,9.45C672.64,619,668.68,608.66,665.87,603.81Zm-90.76-4.2a41.25,41.25,0,1,1,41.24-41.25A41.25,41.25,0,0,1,575.11,599.61Z"/><path d="M482.16,59.35A396.65,396.65,0,0,0,201.24,175.46a362.6,362.6,0,0,1,246-95.68c201,0,364,162.94,364,364a362.35,362.35,0,0,1-71.78,217c-49.17,53.65-118.93,82.31-118.93,82.31s-60.77,18.63-85-11.75-42.12-47-66.63-52.08-103.41-.26-138.64-6.9-44.17-18.13-61.87-23-18,8.17-18,8.17c-2,14.48,13.28,27.92,35.75,39.15s40.51,14.3,75.23,35.75,21.91,32.8-11.57,27.57-123.49-57.19-123.49-57.19l-56-35.57s-12.94-11.66-18-1.71,9.27,25.71,9.27,25.71,2.09,2.91,6.31,7.89c72.72,94.53,186,156,314.49,156,219.76,0,397.91-178.15,397.91-397.91S701.92,59.35,482.16,59.35Z" fill="#8dc640"/></svg>