<svg id="Layer_1" data-name="Layer 1" xmlns="http://www.w3.org/2000/svg" viewBox="0 0 1650.7 707.95"><defs><style>.cls-1{fill:#0c53a0;}.cls-2{fill:#fbae17;}.cls-3{fill:#fbb227;}.cls-4{font-size:87px;fill:#0054a6;font-family:EthiopicWashRaBold, Ethiopic WashRa Bold;}.cls-5{font-size:61px;fill:#fcaf17;font-family:Arial-BoldMT, Arial;font-weight:700;}.cls-6{letter-spacing:-0.04em;}.cls-7{letter-spacing:-0.02em;}.cls-8{letter-spacing:0em;}.cls-9{letter-spacing:-0.04em;}</style></defs><path class="cls-1" d="M75.83,352.51c-.72,15,1.54,29.78,4.42,44.39a239.74,239.74,0,0,0,37.32,88.6c22.42,33.12,51.08,59.38,86.36,78.23a241.27,241.27,0,0,0,88.69,27.5c5.61.6,11.2,1.29,16.85.88a109.73,109.73,0,0,0,20.9,0c15.9.42,31.34-2.74,46.65-6.43,30-7.24,57.33-20.68,82.77-37.95,6.5-4.41,12.41-9.69,18.5-14.68,1.31-1.06,1.68-2.34.35-4.12-3.59-4.77-6.86-9.77-10.5-15,7.08,0,13.77,2.15,20.52,3.45,26.21,5,52.38,10.3,78.71,14.73,2.93.49,5.8,1.5,8.74,1.69,4.4.28,5,2.64,4.67,6.38-1.74,19.82-3.17,39.67-5,59.48-1.8,19.28-2.37,38.68-5.26,58.91-4-5.42-7.67-10-10.87-15-2.09-3.23-3.67-4.06-7.43-2a362.65,362.65,0,0,1-68.62,29.82A329.89,329.89,0,0,1,414,685.06c-14.89,1.32-29.76.58-44.64.81-1.73-.81-3.66,0-5.4-.7a327.38,327.38,0,0,1-61-10.49c-42.49-11.51-81.95-29.29-117.09-56.2a299.81,299.81,0,0,1-40.44-36.72,343.8,343.8,0,0,1-56.16-85A354,354,0,0,1,71.18,449.6a321.66,321.66,0,0,1-11-52.23c-1.33-10.11-1.79-20.24-2.43-30.38a211.13,211.13,0,0,1,0-22.92,270.12,270.12,0,0,1,3.49-39.59,325.2,325.2,0,0,1,9.21-40,339.48,339.48,0,0,1,31.87-74.45,314.37,314.37,0,0,1,30.8-44.43A294.56,294.56,0,0,1,160,116.57c30.87-28.46,65.46-51,104.72-66.31a349.93,349.93,0,0,1,86.41-21.74c6.59-.79,13.23-1.15,19.84-1.71,2.11-.54,4.34.2,6.43-.59a117,117,0,0,0,19.09,0c2.4.91,5,0,7.39.65a340,340,0,0,1,88.69,17.21,331.68,331.68,0,0,1,113.72,65.8,318,318,0,0,1,50.45,56.75c.74,1.06,1.36,2.21,2.27,3.73-6.28,1.33-11.78-1.12-17.33-2.09-16.39-2.88-32.7-6.29-49-9.5-2.71-.54-5.45-.67-8.17-.94-3.59-.36-6.71-2.47-9.54-5.35C555.59,132.7,533.4,116.57,509.41,103A281.7,281.7,0,0,0,457,79.87c-18.29-5.9-36.82-10.8-56-13.06-7.86-.92-15.69-2.34-23.62-2.84-1.73-.79-3.67,0-5.42-.7-39.8-1.65-78.52,3.62-115.82,18a5,5,0,0,0-1.17.93c-1.89,2.43-5.05,2.37-7.45,3.79-1.45.27-2.64,1.24-4.93,1.58,2.39-.25,3.63-1.33,5.16-1.57a4.66,4.66,0,0,0,1.36-.54c2.49-1.46,5.31-1.8,8.07-2.32,21.24-5.85,42.77-10,64.8-11.33,2.43-.66,5,.25,7.41-.64a93.81,93.81,0,0,0,17.09,0c2.75.91,5.63,0,8.4.61,30.91,1.33,60.68,8.48,89.91,18,30.72,10,58.52,25.62,84.35,44.93,9.46,7.08,17.72,15.48,26.76,23,4.22,3.51,4.71,7.58,4,12.4-3.28,21.38-6.58,42.76-9.73,64.16-1.06,7.19-1.67,14.44-3.52,22.18-5.58-11.72-10.66-23-17-33.74a228.06,228.06,0,0,0-31.11-41.69c-13.31-14-27.55-26.93-43.66-37.77-32.31-21.74-67.66-35.13-106.39-39.19-5.64-.59-11.34-2-17.13-1.12-2.4-.93-5,0-7.39-.68l-11.08,0c-2.42.67-5-.26-7.38.65-16.56,0-32.65,3.21-48.51,7.46a237.33,237.33,0,0,0-96.16,51c-42.91,37.5-70.09,84.16-81,140.18-2.63,13.52-4.71,27.11-4,41A26.37,26.37,0,0,0,75.83,352.51Z"/><path class="cls-2" d="M88.77,318.08a238.5,238.5,0,0,1,49.37-117.75,213.76,213.76,0,0,1,18.27-20.67,243.33,243.33,0,0,1,28.41-24.08,268.44,268.44,0,0,1,39.55-23.47c24-11.39,49.33-18.08,75.64-21.3,1.64-.61,3.49.3,5.08-.68l7.91-.29a151.74,151.74,0,0,1,19.89,0c.4,2.37-1.56,1.22-2.28,1.3-30.72,3.22-60.28,10.81-87.88,24.8-70.31,35.66-116.31,90.95-133.12,168.62A218.11,218.11,0,0,0,117.83,427c.62,1.72,1.44,3.36,2.16,5a6.75,6.75,0,0,1,1.6,3.23c0,.31.1.44.35.34a1,1,0,0,1-.38-.66,5.86,5.86,0,0,1-.38-2.92c-3.64-16.24-7-32.5-8.56-49.13-5.62-59.68,8.45-113.9,44.5-162.14,36.52-48.88,84.21-80.86,143.88-94.08,44.54-9.87,88.36-5.11,131.44,8.79a54.61,54.61,0,0,1,9.18,3.74c-4.62,1-8.93-.89-13.27-1.6-13.29-2.16-26.36-5.67-39.87-6.61-2.07-.15-4-1.47-6.25-1-1.67-.85-3.53-.08-5.23-.64l-9.77-.36a49.28,49.28,0,0,0-14.45,0l-8.91.32c-1.67.58-3.52-.26-5.15.66a274.58,274.58,0,0,0-46.64,8.13A212.49,212.49,0,0,0,209.69,181c-32.81,27.43-56.36,61.61-71.79,101.44-8.16,21.07-13.6,42.7-14,65.42a188.42,188.42,0,0,0,0,28.51l.3,6.75c.67,1.69-.18,3.58.7,5.25.93,20.5,6.58,39.95,13.74,59,9.37,24.86,22.48,47.63,38.52,68.87,15.4,20.4,34.87,35.61,56.91,48,12.13,6.82,25,11.85,37.87,17,.3.88-.16,1.3-.93,1.52a243.79,243.79,0,0,1-51.37-18,234.26,234.26,0,0,1-37.93-23.37c-11-8.2-20.84-17.66-30.34-27.47-12.84-13.27-23.36-28.31-32.82-44.14-13.12-22-21.32-45.89-27.28-70.56A116.21,116.21,0,0,1,87.72,374c-.73-2,.37-4.12-.73-6l-.3-9a110.6,110.6,0,0,1,.08-16.88c.09-2.94.17-5.89.26-8.83,1-2-.06-4.18.74-6.17.07-1.32.15-2.63.22-3.95C89.06,321.57,88,319.68,88.77,318.08Z"/><path class="cls-3" d="M271,582.68l.93-1.52,3.94,1c.31.91-.16,1.38-.95,1.66Z"/><text class="cls-4" transform="translate(317.43 369.94)">የትራንስፖርት እና ሎጂስቲክስ ሚኒስቴር<tspan class="cls-5"><tspan x="0" y="73.2">MINIST</tspan><tspan class="cls-6" x="206.71" y="73.2">R</tspan><tspan class="cls-7" x="248.5" y="73.2">Y</tspan><tspan class="cls-8" x="288.08" y="73.2" xml:space="preserve"> OF TRANSPORT</tspan><tspan class="cls-9" x="786.24" y="73.2"> </tspan><tspan class="cls-8" x="800.92" y="73.2">AND LOGISTICS</tspan></tspan></text></svg>