<svg xmlns="http://www.w3.org/2000/svg" viewBox="0 0 67.27 30.79"><defs><style>.cls-1{isolation:isolate;}.cls-2{fill:#fff;fill-opacity:0;}.cls-3{fill:#ffc20e;}.cls-4,.cls-5,.cls-8,.cls-9{mix-blend-mode:multiply;}.cls-4{opacity:0.5;}.cls-6{fill:#008fd5;}.cls-7{fill:#0072bc;}.cls-8{opacity:0.2;}.cls-9{opacity:0.8;}</style></defs><g class="cls-1"><g id="_2:-_BACKDROPS__Min.Sizes_Of_LogoElements_ClearAreaZones_" data-name="#2:- BACKDROPS_ Min.Sizes Of (LogoElements+ClearAreaZones)"><rect id="Min.Sizes_of_Clear_Area_Zones_2.95x1.35cm_" data-name="Min.Sizes of Clear Area Zones (≈2.95x1.35cm)" class="cls-2" x="-8.18" y="-3.74" width="83.62" height="38.27"/><rect id="Min.Sizes_of_Logo_Elements_2.45x0.9cm_" data-name="Min.Sizes of Logo Elements (≈2.45x0.9cm)" class="cls-2" x="0.33" y="2.64" width="69.55" height="25.51"/></g><g id="_1:-_MAIN_LOGO_DESIGN_ELEMENTS_Min.Sizes_2.45x0.9cm_" data-name="#1:- MAIN LOGO DESIGN ELEMENTS (Min.Sizes≈2.45x0.9cm)"><g id="_1.1:-_LOGOMARK_ICONS_Stylized_Letterforms_t_Dir.Arrows_" data-name="1.1:- LOGOMARK/ICONS (Stylized Letterforms&quot;ቴ+t&quot; &amp; Dir.Arrows)"><path id="English_Logotypes__telebirr__3" data-name="English Logotypes_ telebirr_#3" class="cls-3" d="M65.45,20.55l-.23.05-.23.08-.21.1a1.39,1.39,0,0,0-.21.11l-.2.13-.19.15-.17.16a1.37,1.37,0,0,0-.16.18.86.86,0,0,0-.14.18,1.13,1.13,0,0,0-.13.2,1.43,1.43,0,0,0-.12.21c0,.07-.07.14-.1.22s0,.14-.07.22a1.55,1.55,0,0,0,0,.23l-.51,2.89a.69.69,0,0,1-.67.57.46.46,0,0,1-.46-.57l.87-5a.71.71,0,0,1,.67-.56.46.46,0,0,1,.4.22,2.47,2.47,0,0,1,.27-.21l.29-.2.32-.17.31-.14.34-.12.34-.08a.46.46,0,0,1,.59.44A.71.71,0,0,1,65.45,20.55Zm-3.94-1.11-.34.08c-.11,0-.22.07-.33.12l-.32.14L60.2,20l-.29.2a2.47,2.47,0,0,0-.27.21.46.46,0,0,0-.4-.22.71.71,0,0,0-.67.56l-.87,5a.46.46,0,0,0,.47.57.69.69,0,0,0,.66-.57l.51-2.89a1.55,1.55,0,0,1,.06-.23,2,2,0,0,1,.07-.23l.09-.21a1.43,1.43,0,0,1,.12-.21l.13-.2a1.24,1.24,0,0,1,.14-.18c0-.07.11-.12.16-.18l.18-.16.19-.15.19-.13.21-.11.22-.1.22-.08.23-.05a.7.7,0,0,0,.55-.67A.46.46,0,0,0,61.51,19.44Zm-4.75.7a.71.71,0,0,0-.67.56l-.87,5a.46.46,0,0,0,.47.57.69.69,0,0,0,.66-.57l.88-5A.46.46,0,0,0,56.76,20.14ZM57.13,18a.69.69,0,0,0-.66.57l-.06.35a.46.46,0,0,0,.46.57.71.71,0,0,0,.67-.57l.06-.35A.46.46,0,0,0,57.13,18Zm-2.76,4.82a4.24,4.24,0,0,1-4,3.4,2.78,2.78,0,0,1-2.51-1.43h-.08a.45.45,0,0,1-.46-.56l1-5.67A.69.69,0,0,1,49,18a.46.46,0,0,1,.46.57l-.3,1.73a4,4,0,0,1,2.42-.88A2.77,2.77,0,0,1,54.37,22.83Zm-1.13,0a1.86,1.86,0,0,0-1.87-2.27,2.83,2.83,0,0,0-2.67,2.27,1.86,1.86,0,0,0,1.87,2.27A2.83,2.83,0,0,0,53.24,22.83Zm-6.31,0a.7.7,0,0,1-.67.56h-5a1.83,1.83,0,0,0,1.89,1.71h0a2.4,2.4,0,0,0,.46-.05,2.13,2.13,0,0,0,.45-.13,2.74,2.74,0,0,0,.42-.21.51.51,0,0,1,.76.15.63.63,0,0,1-.29.79,3.68,3.68,0,0,1-.63.31,3.31,3.31,0,0,1-.68.2,3.17,3.17,0,0,1-.69.07h0a2.78,2.78,0,0,1-2.8-3.4,4.23,4.23,0,0,1,4-3.4A2.77,2.77,0,0,1,46.93,22.83Zm-5.49-.57h4.38a1.84,1.84,0,0,0-1.89-1.7A2.84,2.84,0,0,0,41.44,22.26ZM39,24.54a2.16,2.16,0,0,1,0-.88l.9-5.08a.47.47,0,0,0-.47-.57.71.71,0,0,0-.67.57l-.89,5.08a3.25,3.25,0,0,0,0,1.32,2.62,2.62,0,0,0,.54,1.08.44.44,0,0,0,.37.17.67.67,0,0,0,.43-.17.59.59,0,0,0,.14-.8A1.88,1.88,0,0,1,39,24.54Zm-1.65-1.71a.69.69,0,0,1-.66.56h-5a1.82,1.82,0,0,0,1.88,1.71h0a2.5,2.5,0,0,0,.47-.05,2.23,2.23,0,0,0,.44-.13,2.86,2.86,0,0,0,.43-.21.52.52,0,0,1,.76.15.64.64,0,0,1-.29.79,3.78,3.78,0,0,1-.64.31,3.22,3.22,0,0,1-.67.2,3.26,3.26,0,0,1-.7.07h0a2.78,2.78,0,0,1-2.8-3.4,4.24,4.24,0,0,1,4-3.4A2.77,2.77,0,0,1,37.36,22.83Zm-5.48-.57h4.37a1.82,1.82,0,0,0-1.89-1.7A2.82,2.82,0,0,0,31.88,22.26Zm-2,2.88a1.8,1.8,0,0,1-.64-.48,2,2,0,0,1-.36-.73,2.35,2.35,0,0,1,0-.88l.44-2.49h1a.71.71,0,0,0,.67-.57.46.46,0,0,0-.47-.56h-1l.15-.85a.46.46,0,0,0-.47-.57.69.69,0,0,0-.66.57l-.15.85h-1a.7.7,0,0,0-.67.56.46.46,0,0,0,.46.57h1l-.44,2.49a3.24,3.24,0,0,0,0,1.32,2.72,2.72,0,0,0,.54,1.09,2.84,2.84,0,0,0,.95.73.54.54,0,0,0,.22,0,.69.69,0,0,0,.58-.35A.5.5,0,0,0,29.84,25.14Z"/><g id="English_Logotypes__telebirr__2" data-name="English Logotypes_ telebirr_#2"><g class="cls-4"><path class="cls-3" d="M65.53,19.78a.11.11,0,0,1,.12.11.36.36,0,0,1-.28.31l-.25.06-.25.09-.24.11-.24.13a1.5,1.5,0,0,0-.23.15l-.21.17-.19.17-.18.19-.16.21a2.17,2.17,0,0,0-.15.22,1.34,1.34,0,0,0-.12.24,1.57,1.57,0,0,0-.12.26c0,.07-.05.16-.08.24l-.06.27-.51,2.89a.35.35,0,0,1-.32.28.11.11,0,0,1-.11-.15l.87-5a.36.36,0,0,1,.32-.28.11.11,0,0,1,.09.05l.22.35.31-.26.25-.2.28-.18.28-.15a2.08,2.08,0,0,1,.3-.13l.31-.11.3-.07h0m0-.35h-.12l-.34.08-.34.12-.31.14L64.1,20l-.29.2a2.47,2.47,0,0,0-.27.21.46.46,0,0,0-.4-.22.71.71,0,0,0-.67.56l-.87,5a.46.46,0,0,0,.46.57.69.69,0,0,0,.67-.57l.51-2.89a1.55,1.55,0,0,1,0-.23c0-.08.05-.15.07-.22s.07-.15.1-.22a1.43,1.43,0,0,1,.12-.21,1.13,1.13,0,0,1,.13-.2.86.86,0,0,1,.14-.18,1.37,1.37,0,0,1,.16-.18l.17-.16.19-.15.2-.13a1.39,1.39,0,0,1,.21-.11l.21-.1.23-.08.23-.05a.71.71,0,0,0,.55-.67.45.45,0,0,0-.47-.45Zm-3.9.35a.11.11,0,0,1,.12.11.35.35,0,0,1-.27.31l-.26.06-.25.09-.25.11a1.71,1.71,0,0,0-.23.13,1.43,1.43,0,0,0-.22.15,1.66,1.66,0,0,0-.21.16l-.19.17a1.9,1.9,0,0,0-.19.21l-.16.2-.14.22-.14.24c0,.08-.07.16-.1.25a1.44,1.44,0,0,0-.08.25,2.68,2.68,0,0,0-.07.27l-.5,2.89a.37.37,0,0,1-.32.28.13.13,0,0,1-.1,0,.14.14,0,0,1,0-.11l.87-5a.36.36,0,0,1,.32-.27.11.11,0,0,1,.1.05l.22.35.31-.26a2.43,2.43,0,0,1,.25-.2l.27-.17.29-.17L61,20l.31-.11.3-.07h.05m0-.35h-.12l-.34.08c-.11,0-.22.07-.33.12l-.32.14L60.2,20l-.29.2a2.47,2.47,0,0,0-.27.21.46.46,0,0,0-.4-.22.71.71,0,0,0-.67.56l-.87,5a.46.46,0,0,0,.47.57.69.69,0,0,0,.66-.57l.51-2.89a1.55,1.55,0,0,1,.06-.23,2,2,0,0,1,.07-.23l.09-.21a1.43,1.43,0,0,1,.12-.21l.13-.2a1.24,1.24,0,0,1,.14-.18c0-.07.11-.12.16-.18l.18-.16.19-.15.19-.13.21-.11.22-.1.22-.08.23-.05a.7.7,0,0,0,.55-.67.45.45,0,0,0-.47-.45Zm-4.87,1.06a.14.14,0,0,1,.1,0,.12.12,0,0,1,0,.11l-.88,5a.34.34,0,0,1-.31.28.12.12,0,0,1-.1,0,.14.14,0,0,1,0-.11l.87-5a.36.36,0,0,1,.32-.27m0-.35a.71.71,0,0,0-.67.56l-.87,5a.46.46,0,0,0,.47.57.69.69,0,0,0,.66-.57l.88-5a.46.46,0,0,0-.47-.56Zm.37-1.78a.13.13,0,0,1,.1,0,.14.14,0,0,1,0,.11l-.06.36a.36.36,0,0,1-.32.27.13.13,0,0,1-.1,0,.16.16,0,0,1,0-.12l.06-.35a.34.34,0,0,1,.31-.28m0-.35a.69.69,0,0,0-.66.57l-.06.35a.46.46,0,0,0,.46.57.71.71,0,0,0,.67-.57l.06-.35a.46.46,0,0,0-.47-.57ZM49,18.36a.11.11,0,0,1,.09,0,.14.14,0,0,1,0,.11l-.3,1.74-.16.91.72-.57a3.67,3.67,0,0,1,2.21-.81,2.47,2.47,0,0,1,1.94.85A2.57,2.57,0,0,1,54,22.77a3.87,3.87,0,0,1-3.65,3.11,2.42,2.42,0,0,1-2.2-1.25l-.12-.22-.25,0h0a.11.11,0,0,1-.09,0,.13.13,0,0,1,0-.11l1-5.67a.34.34,0,0,1,.32-.28m1.58,7.09a3.2,3.2,0,0,0,3-2.56A2.32,2.32,0,0,0,53.12,21a2.24,2.24,0,0,0-1.75-.77,3.19,3.19,0,0,0-3,2.56,2.3,2.3,0,0,0,.47,1.9,2.24,2.24,0,0,0,1.75.78M49,18a.69.69,0,0,0-.67.57l-1,5.67a.45.45,0,0,0,.46.56h.08a2.78,2.78,0,0,0,2.51,1.43,4.24,4.24,0,0,0,4-3.4,2.77,2.77,0,0,0-2.8-3.4,4,4,0,0,0-2.42.88l.3-1.73A.46.46,0,0,0,49,18Zm1.58,7.09a1.86,1.86,0,0,1-1.87-2.27,2.83,2.83,0,0,1,2.67-2.27,1.86,1.86,0,0,1,1.87,2.27,2.83,2.83,0,0,1-2.67,2.27Zm-6.44-5.32a2.47,2.47,0,0,1,1.94.85,2.56,2.56,0,0,1,.51,2.14.34.34,0,0,1-.32.27h-5.4l0,.38a2.16,2.16,0,0,0,2.24,2,3.17,3.17,0,0,0,.53-.05,2.46,2.46,0,0,0,.51-.15,2.69,2.69,0,0,0,.48-.24.37.37,0,0,1,.15,0,.13.13,0,0,1,.11.05c0,.08,0,.24-.16.33a4.41,4.41,0,0,1-.58.28,3.28,3.28,0,0,1-.61.18,3.38,3.38,0,0,1-.63.07A2.48,2.48,0,0,1,41,25a2.54,2.54,0,0,1-.51-2.13,3.87,3.87,0,0,1,3.65-3.11M40.9,22.62h5.3l0-.39a2.16,2.16,0,0,0-2.24-2,3.18,3.18,0,0,0-2.81,1.91l-.22.5m3.23-3.19a4.23,4.23,0,0,0-4,3.4,2.78,2.78,0,0,0,2.8,3.4,3.17,3.17,0,0,0,.69-.07,3.31,3.31,0,0,0,.68-.2,3.68,3.68,0,0,0,.63-.31.63.63,0,0,0,.29-.79.46.46,0,0,0-.42-.25.63.63,0,0,0-.34.1,2.74,2.74,0,0,1-.42.21,2.13,2.13,0,0,1-.45.13,2.4,2.4,0,0,1-.46.05h0a1.83,1.83,0,0,1-1.89-1.71h5a.7.7,0,0,0,.67-.56,2.77,2.77,0,0,0-2.8-3.4Zm-2.69,2.83a2.84,2.84,0,0,1,2.49-1.7,1.84,1.84,0,0,1,1.89,1.7Zm-2-3.9a.14.14,0,0,1,.1,0,.14.14,0,0,1,0,.11l-.9,5.09a2.49,2.49,0,0,0,0,1,2.09,2.09,0,0,0,.43.87c0,.06,0,.21-.1.3a.3.3,0,0,1-.2.09.13.13,0,0,1-.1,0,2.45,2.45,0,0,1-.47-.94,2.91,2.91,0,0,1,0-1.18l.9-5.08a.36.36,0,0,1,.32-.28m0-.35a.71.71,0,0,0-.67.57l-.89,5.08a3.25,3.25,0,0,0,0,1.32,2.62,2.62,0,0,0,.54,1.08.44.44,0,0,0,.37.17.67.67,0,0,0,.43-.17.59.59,0,0,0,.14-.8,1.88,1.88,0,0,1-.36-.72,2.16,2.16,0,0,1,0-.88l.9-5.08a.47.47,0,0,0-.47-.57Zm-4.86,1.77a2.47,2.47,0,0,1,1.94.85A2.57,2.57,0,0,1,37,22.77a.36.36,0,0,1-.32.27H31.29l0,.38a2.16,2.16,0,0,0,2.24,2,3.07,3.07,0,0,0,.53-.05,2.46,2.46,0,0,0,.51-.15,2.16,2.16,0,0,0,.48-.24.41.41,0,0,1,.15,0,.12.12,0,0,1,.11.05c0,.08,0,.24-.16.33a3.88,3.88,0,0,1-.58.28,3.28,3.28,0,0,1-.61.18,3.38,3.38,0,0,1-.63.07A2.48,2.48,0,0,1,31.42,25a2.57,2.57,0,0,1-.51-2.13,3.87,3.87,0,0,1,3.65-3.11m-3.22,2.84h5.29l0-.39a2.16,2.16,0,0,0-2.24-2,3.18,3.18,0,0,0-2.81,1.91l-.21.5m3.22-3.19a4.24,4.24,0,0,0-4,3.4,2.78,2.78,0,0,0,2.8,3.4,3.26,3.26,0,0,0,.7-.07,3.22,3.22,0,0,0,.67-.2,3.78,3.78,0,0,0,.64-.31.64.64,0,0,0,.29-.79.47.47,0,0,0-.43-.25.6.6,0,0,0-.33.1,2.86,2.86,0,0,1-.43.21,2.23,2.23,0,0,1-.44.13,2.5,2.5,0,0,1-.47.05h0a1.82,1.82,0,0,1-1.88-1.71h5a.69.69,0,0,0,.66-.56,2.77,2.77,0,0,0-2.8-3.4Zm-2.68,2.83a2.82,2.82,0,0,1,2.48-1.7,1.82,1.82,0,0,1,1.89,1.7Zm-2.74-3.9a.13.13,0,0,1,.1,0,.14.14,0,0,1,0,.11l-.15.86-.07.41h1.41a.14.14,0,0,1,.1,0,.12.12,0,0,1,0,.11.37.37,0,0,1-.32.28H29l-.05.29L28.47,23a2.54,2.54,0,0,0,0,1,2.12,2.12,0,0,0,.43.86,2.06,2.06,0,0,0,.76.58s0,0,0,.06a.21.21,0,0,1,0,.18.35.35,0,0,1-.27.18l-.07,0a2.35,2.35,0,0,1-.83-.63,2.45,2.45,0,0,1-.47-.94,2.75,2.75,0,0,1,0-1.18l.44-2.49.07-.41H27.13a.11.11,0,0,1-.09,0,.16.16,0,0,1,0-.12.34.34,0,0,1,.32-.27h1.28l.06-.29.15-.85a.34.34,0,0,1,.31-.28m0-.35a.69.69,0,0,0-.66.57l-.15.85h-1a.7.7,0,0,0-.67.56.46.46,0,0,0,.46.57h1l-.44,2.49a3.24,3.24,0,0,0,0,1.32,2.72,2.72,0,0,0,.54,1.09,2.84,2.84,0,0,0,.95.73.54.54,0,0,0,.22,0,.69.69,0,0,0,.58-.35.5.5,0,0,0-.17-.74,1.8,1.8,0,0,1-.64-.48,2,2,0,0,1-.36-.73,2.35,2.35,0,0,1,0-.88l.44-2.49h1a.71.71,0,0,0,.67-.57.46.46,0,0,0-.47-.56h-1l.15-.85a.46.46,0,0,0-.47-.57Z"/></g></g><g id="English_Logotypes__telebirr__1" data-name="English Logotypes_ telebirr_#1"><g class="cls-5"><path class="cls-3" d="M65.53,19.61a.27.27,0,0,1,.29.27.52.52,0,0,1-.41.49,1.05,1.05,0,0,0-.24.06,1.35,1.35,0,0,0-.24.08l-.23.1-.22.12a1.91,1.91,0,0,0-.21.14l-.21.16-.18.17a1.54,1.54,0,0,0-.17.19l-.15.19a1.28,1.28,0,0,0-.14.21,1.64,1.64,0,0,0-.12.22,2.56,2.56,0,0,0-.11.24,2.17,2.17,0,0,0-.07.24,1,1,0,0,0-.06.25l-.51,2.89a.52.52,0,0,1-.49.42.33.33,0,0,1-.23-.1.31.31,0,0,1,0-.25l.87-5a.53.53,0,0,1,.49-.42.27.27,0,0,1,.24.13l.11.18.16-.13.27-.2.28-.19.3-.17.3-.13.33-.11.31-.08h.09m0-.18h-.12l-.34.08-.34.12-.31.14L64.1,20l-.29.2a2.47,2.47,0,0,0-.27.21.46.46,0,0,0-.4-.22.71.71,0,0,0-.67.56l-.87,5a.46.46,0,0,0,.46.57.69.69,0,0,0,.67-.57l.51-2.89a1.55,1.55,0,0,1,0-.23c0-.08.05-.15.07-.22s.07-.15.1-.22a1.43,1.43,0,0,1,.12-.21,1.13,1.13,0,0,1,.13-.2.86.86,0,0,1,.14-.18,1.37,1.37,0,0,1,.16-.18l.17-.16.19-.15.2-.13a1.39,1.39,0,0,1,.21-.11l.21-.1.23-.08.23-.05a.71.71,0,0,0,.55-.67.45.45,0,0,0-.47-.45Zm-3.9.18a.27.27,0,0,1,.29.27.52.52,0,0,1-.41.49,1.05,1.05,0,0,0-.24.06,1.35,1.35,0,0,0-.24.08l-.23.1-.22.12-.21.14-.2.16a1.45,1.45,0,0,0-.18.17,1.62,1.62,0,0,0-.18.19l-.15.19-.14.21a2.53,2.53,0,0,0-.12.23,1.6,1.6,0,0,0-.1.23,2.25,2.25,0,0,0-.08.24l-.06.25-.51,2.89a.52.52,0,0,1-.48.42.29.29,0,0,1-.23-.1.28.28,0,0,1-.06-.25l.88-5a.51.51,0,0,1,.48-.41.26.26,0,0,1,.24.13l.12.18.16-.13a2.65,2.65,0,0,1,.26-.21l.28-.18.3-.17.31-.13.32-.11.32-.08h.08m0-.18h-.12l-.34.08c-.11,0-.22.07-.33.12l-.32.14L60.2,20l-.29.2a2.47,2.47,0,0,0-.27.21.46.46,0,0,0-.4-.22.71.71,0,0,0-.67.56l-.87,5a.46.46,0,0,0,.47.57.69.69,0,0,0,.66-.57l.51-2.89a1.55,1.55,0,0,1,.06-.23,2,2,0,0,1,.07-.23l.09-.21a1.43,1.43,0,0,1,.12-.21l.13-.2a1.24,1.24,0,0,1,.14-.18c0-.07.11-.12.16-.18l.18-.16.19-.15.19-.13.21-.11.22-.1.22-.08.23-.05a.7.7,0,0,0,.55-.67.45.45,0,0,0-.47-.45Zm-4.87.89a.29.29,0,0,1,.23.1.3.3,0,0,1,0,.25l-.87,5a.52.52,0,0,1-.48.42.29.29,0,0,1-.23-.1.28.28,0,0,1-.06-.25l.88-5a.51.51,0,0,1,.48-.41m0-.18a.71.71,0,0,0-.67.56l-.87,5a.46.46,0,0,0,.47.57.69.69,0,0,0,.66-.57l.88-5a.46.46,0,0,0-.47-.56Zm.37-1.95a.29.29,0,0,1,.23.1.28.28,0,0,1,.06.25l-.06.36a.52.52,0,0,1-.49.41.32.32,0,0,1-.23-.09.33.33,0,0,1,0-.26l.06-.35a.52.52,0,0,1,.48-.42m0-.18a.69.69,0,0,0-.66.57l-.06.35a.46.46,0,0,0,.46.57.71.71,0,0,0,.67-.57l.06-.35a.46.46,0,0,0-.47-.57ZM49,18.19a.29.29,0,0,1,.22.1.28.28,0,0,1,.06.25L49,20.28l-.08.47.38-.29a3.79,3.79,0,0,1,2.31-.85,2.66,2.66,0,0,1,2.07.91,2.75,2.75,0,0,1,.55,2.28,4.05,4.05,0,0,1-3.82,3.25A2.58,2.58,0,0,1,48,24.71l-.11-.1-.13,0a.29.29,0,0,1-.22-.1.27.27,0,0,1-.06-.25l1-5.67a.52.52,0,0,1,.49-.42m1.58,7.09a3,3,0,0,0,2.85-2.42A2.15,2.15,0,0,0,53,21.09a2.08,2.08,0,0,0-1.62-.71,3,3,0,0,0-2.85,2.42A2.12,2.12,0,0,0,49,24.56a2.09,2.09,0,0,0,1.62.72M49,18a.69.69,0,0,0-.67.57l-1,5.67a.45.45,0,0,0,.46.56h.08a2.78,2.78,0,0,0,2.51,1.43,4.24,4.24,0,0,0,4-3.4,2.77,2.77,0,0,0-2.8-3.4,4,4,0,0,0-2.42.88l.3-1.73A.46.46,0,0,0,49,18Zm1.58,7.09a1.86,1.86,0,0,1-1.87-2.27,2.83,2.83,0,0,1,2.67-2.27,1.86,1.86,0,0,1,1.87,2.27,2.83,2.83,0,0,1-2.67,2.27Zm-6.44-5.49a2.66,2.66,0,0,1,2.07.91,2.74,2.74,0,0,1,.55,2.28.52.52,0,0,1-.49.41H41l0,.2a2,2,0,0,0,2.07,1.87,2.73,2.73,0,0,0,1-.19,3.11,3.11,0,0,0,.45-.22.44.44,0,0,1,.24-.07.27.27,0,0,1,.26.15.45.45,0,0,1-.22.54,3.83,3.83,0,0,1-.61.3,3.61,3.61,0,0,1-.64.19,3.7,3.7,0,0,1-.66.07,2.64,2.64,0,0,1-2.07-.92,2.72,2.72,0,0,1-.55-2.27,4.05,4.05,0,0,1,3.82-3.25m-3,2.84H46l0-.2a2,2,0,0,0-2.07-1.87,3,3,0,0,0-2.66,1.81l-.11.26m3-3a4.23,4.23,0,0,0-4,3.4,2.78,2.78,0,0,0,2.8,3.4,3.17,3.17,0,0,0,.69-.07,3.31,3.31,0,0,0,.68-.2,3.68,3.68,0,0,0,.63-.31.63.63,0,0,0,.29-.79.46.46,0,0,0-.42-.25.63.63,0,0,0-.34.1,2.74,2.74,0,0,1-.42.21,2.13,2.13,0,0,1-.45.13,2.4,2.4,0,0,1-.46.05h0a1.83,1.83,0,0,1-1.89-1.71h5a.7.7,0,0,0,.67-.56,2.77,2.77,0,0,0-2.8-3.4Zm-2.69,2.83a2.84,2.84,0,0,1,2.49-1.7,1.84,1.84,0,0,1,1.89,1.7Zm-2-4.07a.33.33,0,0,1,.23.1.31.31,0,0,1,.05.25l-.89,5.09a2.33,2.33,0,0,0,0,.95,2.08,2.08,0,0,0,.4.8.41.41,0,0,1-.12.54.48.48,0,0,1-.31.13.3.3,0,0,1-.23-.1,2.46,2.46,0,0,1-.5-1,2.92,2.92,0,0,1,0-1.25l.89-5.08a.53.53,0,0,1,.49-.42m0-.18a.71.71,0,0,0-.67.57l-.89,5.08a3.25,3.25,0,0,0,0,1.32,2.62,2.62,0,0,0,.54,1.08.44.44,0,0,0,.37.17.67.67,0,0,0,.43-.17.59.59,0,0,0,.14-.8,1.88,1.88,0,0,1-.36-.72,2.16,2.16,0,0,1,0-.88l.9-5.08a.47.47,0,0,0-.47-.57Zm-4.86,1.6a2.66,2.66,0,0,1,2.07.91,2.71,2.71,0,0,1,.55,2.28.52.52,0,0,1-.48.41H31.48v.2a2,2,0,0,0,2.07,1.87,2.73,2.73,0,0,0,.5-.05,2.9,2.9,0,0,0,.48-.14,2.35,2.35,0,0,0,.45-.22.44.44,0,0,1,.24-.07.26.26,0,0,1,.26.15.44.44,0,0,1-.22.54,3.45,3.45,0,0,1-.61.3A3.38,3.38,0,0,1,34,26a3.7,3.7,0,0,1-.66.07,2.64,2.64,0,0,1-2.07-.92,2.75,2.75,0,0,1-.55-2.27,4.05,4.05,0,0,1,3.82-3.25m-3,2.84h4.86l0-.2a2,2,0,0,0-2.07-1.87,3,3,0,0,0-2.65,1.81l-.12.26m3-3a4.24,4.24,0,0,0-4,3.4,2.78,2.78,0,0,0,2.8,3.4,3.26,3.26,0,0,0,.7-.07,3.22,3.22,0,0,0,.67-.2,3.78,3.78,0,0,0,.64-.31.64.64,0,0,0,.29-.79.47.47,0,0,0-.43-.25.6.6,0,0,0-.33.1,2.86,2.86,0,0,1-.43.21,2.23,2.23,0,0,1-.44.13,2.5,2.5,0,0,1-.47.05h0a1.82,1.82,0,0,1-1.88-1.71h5a.69.69,0,0,0,.66-.56,2.77,2.77,0,0,0-2.8-3.4Zm-2.68,2.83a2.82,2.82,0,0,1,2.48-1.7,1.82,1.82,0,0,1,1.89,1.7Zm-2.74-4.07a.29.29,0,0,1,.23.1.28.28,0,0,1,.06.25l-.15.86,0,.21h1.21a.29.29,0,0,1,.23.1.3.3,0,0,1,.06.25.53.53,0,0,1-.49.42H29.1l0,.15L28.64,23a2.38,2.38,0,0,0,0,1,2.11,2.11,0,0,0,.4.79,2.06,2.06,0,0,0,.7.54.23.23,0,0,1,.14.16.42.42,0,0,1,0,.32.53.53,0,0,1-.42.26.29.29,0,0,1-.14,0,2.49,2.49,0,0,1-.89-.68,2.46,2.46,0,0,1-.5-1,2.91,2.91,0,0,1,0-1.25l.44-2.49,0-.21H27.13a.29.29,0,0,1-.22-.1.28.28,0,0,1-.06-.25.52.52,0,0,1,.49-.42h1.14l0-.15.15-.85a.52.52,0,0,1,.48-.42m0-.18a.69.69,0,0,0-.66.57l-.15.85h-1a.7.7,0,0,0-.67.56.46.46,0,0,0,.46.57h1l-.44,2.49a3.24,3.24,0,0,0,0,1.32,2.72,2.72,0,0,0,.54,1.09,2.84,2.84,0,0,0,.95.73.54.54,0,0,0,.22,0,.69.69,0,0,0,.58-.35.5.5,0,0,0-.17-.74,1.8,1.8,0,0,1-.64-.48,2,2,0,0,1-.36-.73,2.35,2.35,0,0,1,0-.88l.44-2.49h1a.71.71,0,0,0,.67-.57.46.46,0,0,0-.47-.56h-1l.15-.85a.46.46,0,0,0-.47-.57Z"/></g></g><path id="Amharic_Logotypes____3" data-name="Amharic Logotypes_ ቴሌብር_#3" class="cls-6" d="M54.05,16.24a.81.81,0,0,1-.53.21.68.68,0,0,1-.35-.1H51.4a2,2,0,0,1-2-2.48L50,10.43A3.09,3.09,0,0,1,52.89,8H54a1.17,1.17,0,0,1,.53.11,1.14,1.14,0,0,1,.39.3.73.73,0,0,1-.17,1,.86.86,0,0,1-.54.21.59.59,0,0,1-.47-.21h-1a1.34,1.34,0,0,0-1.26,1.07l-.6,3.44a.87.87,0,0,0,.88,1.06h1.87a1,1,0,0,1,.4.08.76.76,0,0,1,.3.23A.72.72,0,0,1,54.05,16.24ZM46.51,8a3.54,3.54,0,0,0-3.34,2.83H43a1.79,1.79,0,0,0-1.18.46.73.73,0,0,0-.18,1,.59.59,0,0,0,.47.21.81.81,0,0,0,.53-.21.18.18,0,0,1,.11,0h.21l-.62,3.54a.57.57,0,0,0,.58.71.88.88,0,0,0,.84-.71l.87-5h0a1.78,1.78,0,0,1,1.67-1.42,1.17,1.17,0,0,1,1.17,1.42h0l-.88,5a.57.57,0,0,0,.58.71.87.87,0,0,0,.84-.71l.87-5h0A2.31,2.31,0,0,0,46.51,8Zm-4.64,6a1.75,1.75,0,0,0,0-.4,1.91,1.91,0,0,0-.13-.36,1.77,1.77,0,0,0-.21-.32,2.23,2.23,0,0,0-.27-.26,1.5,1.5,0,0,0-.33-.19,1.47,1.47,0,0,0-.37-.13.88.88,0,0,0-.94.56.59.59,0,0,0,.41.83l.13,0,.1.06a.38.38,0,0,1,.09.09l.07.11a.61.61,0,0,1,.05.12.57.57,0,0,1,0,.13.38.38,0,0,1,0,.15.74.74,0,0,1,0,.14.52.52,0,0,1-.06.13.47.47,0,0,1-.09.12l-.1.11-.12.08-.14.07-.14,0a.66.66,0,0,1-.28,0l-.12,0-.12-.07a.3.3,0,0,1-.08-.08.41.41,0,0,1-.07-.11A.61.61,0,0,1,39,14.6a.53.53,0,0,1,0-.13.33.33,0,0,1,0-.14l.31-1.78a2,2,0,0,0-2-2.48,2.81,2.81,0,0,0-1.11.25l.29-1.66A.57.57,0,0,0,35.88,8a.88.88,0,0,0-.84.71L33.8,15.74a.57.57,0,0,0,.58.71.87.87,0,0,0,.83-.71l.57-3.19A1.32,1.32,0,0,1,37,11.49a.87.87,0,0,1,.87,1.06l-.31,1.78a1.49,1.49,0,0,0,0,.42,1.84,1.84,0,0,0,0,.41,2.09,2.09,0,0,0,.13.35,1.77,1.77,0,0,0,.21.32,1.34,1.34,0,0,0,.27.26,1.42,1.42,0,0,0,.32.19,1.71,1.71,0,0,0,.38.13,1.87,1.87,0,0,0,.42,0,2,2,0,0,0,.43,0,2.13,2.13,0,0,0,.43-.13,2.55,2.55,0,0,0,.75-.45,2.42,2.42,0,0,0,.32-.32,3.32,3.32,0,0,0,.26-.36,2.46,2.46,0,0,0,.19-.4,2.21,2.21,0,0,0,.12-.42A1.59,1.59,0,0,0,41.87,13.9Zm-8.55-.4a1.92,1.92,0,0,0-.14-.36,1.32,1.32,0,0,0-.2-.32,2.23,2.23,0,0,0-.27-.26,2.63,2.63,0,0,0-.33-.2,2.11,2.11,0,0,0-.38-.12.87.87,0,0,0-.93.56.59.59,0,0,0,.41.83l.12,0,.1.06a.45.45,0,0,1,.1.09l.07.11a.56.56,0,0,1,0,.12.59.59,0,0,1,0,.13.76.76,0,0,1,0,.15.74.74,0,0,1,0,.14l-.06.13-.09.12-.11.11-.12.08-.13.07-.14,0a.71.71,0,0,1-.29,0l-.12,0a.41.41,0,0,1-.11-.07l-.09-.08-.07-.11a.56.56,0,0,1,0-.12.51.51,0,0,1,0-.13.66.66,0,0,1,0-.14l.56-3.19h1.05a.62.62,0,0,0,.35.1A.84.84,0,0,0,33,11a.73.73,0,0,0,.18-1,1,1,0,0,0-.3-.23,1.06,1.06,0,0,0-.4-.08H31.31l.19-1.06A.57.57,0,0,0,30.92,8a.88.88,0,0,0-.84.71L29.9,9.72h-.46a1.23,1.23,0,0,0-.44.09,1.39,1.39,0,0,0-.37.22.73.73,0,0,0-.17,1,.67.67,0,0,0,.85.11h.34l-.57,3.19a3,3,0,0,0,0,.42,1.84,1.84,0,0,0,.06.41,1.48,1.48,0,0,0,.13.35,1.32,1.32,0,0,0,.2.32,2.23,2.23,0,0,0,.27.26,1.77,1.77,0,0,0,.33.19,1.47,1.47,0,0,0,.37.13,2,2,0,0,0,.43,0,2.09,2.09,0,0,0,.43,0,2.35,2.35,0,0,0,.43-.13,3.49,3.49,0,0,0,.39-.19,3,3,0,0,0,.36-.26,2.34,2.34,0,0,0,.31-.32,2.42,2.42,0,0,0,.27-.36,2.46,2.46,0,0,0,.19-.4,3.31,3.31,0,0,0,.12-.42,3.22,3.22,0,0,0,0-.43A2.57,2.57,0,0,0,33.32,13.5Z"/><g id="Amharic_Logotypes____2" data-name="Amharic Logotypes_ ቴሌብር_#2"><g class="cls-4"><path class="cls-6" d="M54,8.3a.92.92,0,0,1,.38.08.9.9,0,0,1,.27.2.4.4,0,0,1-.14.51.46.46,0,0,1-.3.12.27.27,0,0,1-.22-.1l-.1-.1h-1.2A1.67,1.67,0,0,0,51,10.37l-.61,3.44a1.27,1.27,0,0,0,.26,1,1.24,1.24,0,0,0,1,.43h1.87a.49.49,0,0,1,.25.06.46.46,0,0,1,.18.13c.1.12,0,.36-.14.51a.52.52,0,0,1-.3.12.25.25,0,0,1-.15-.05L53.28,16H51.4a1.71,1.71,0,0,1-1.34-.58,1.8,1.8,0,0,1-.35-1.48l.61-3.44A2.72,2.72,0,0,1,52.89,8.3H54M54,8H52.89A3.09,3.09,0,0,0,50,10.43l-.61,3.44a2,2,0,0,0,2,2.48h1.77a.68.68,0,0,0,.35.1.81.81,0,0,0,.53-.21.72.72,0,0,0,.18-1,.76.76,0,0,0-.3-.23,1,1,0,0,0-.4-.08H51.66a.87.87,0,0,1-.88-1.06l.6-3.44a1.34,1.34,0,0,1,1.26-1.07h1a.59.59,0,0,0,.47.21.86.86,0,0,0,.54-.21.73.73,0,0,0,.17-1,1.14,1.14,0,0,0-.39-.3A1.17,1.17,0,0,0,54,8Zm-7.44.35A2,2,0,0,1,48.08,9a2.08,2.08,0,0,1,.41,1.73v0h0l-.87,4.93a.54.54,0,0,1-.49.42.26.26,0,0,1-.19-.08.26.26,0,0,1,0-.22l.87-5v0h0a1.59,1.59,0,0,0-.33-1.27A1.53,1.53,0,0,0,46.26,9a2.14,2.14,0,0,0-2,1.71v0h0l-.87,4.93a.54.54,0,0,1-.49.42.24.24,0,0,1-.19-.08.26.26,0,0,1,0-.22l.62-3.54.08-.41h-.64a.54.54,0,0,0-.34.12.46.46,0,0,1-.3.12.27.27,0,0,1-.2-.07.4.4,0,0,1,.14-.51,1.48,1.48,0,0,1,1-.37h.51l.05-.3a3.17,3.17,0,0,1,3-2.54m0-.35a3.54,3.54,0,0,0-3.34,2.83H43a1.79,1.79,0,0,0-1.18.46.73.73,0,0,0-.18,1,.59.59,0,0,0,.47.21.81.81,0,0,0,.53-.21.18.18,0,0,1,.11,0h.21l-.62,3.54a.57.57,0,0,0,.58.71.88.88,0,0,0,.84-.71l.87-5h0a1.78,1.78,0,0,1,1.67-1.42,1.17,1.17,0,0,1,1.17,1.42h0l-.88,5a.57.57,0,0,0,.58.71.87.87,0,0,0,.84-.71l.87-5h0A2.31,2.31,0,0,0,46.51,8ZM35.88,8.3a.24.24,0,0,1,.19.08.25.25,0,0,1,0,.21l-.29,1.67-.12.66.61-.27a2.31,2.31,0,0,1,1-.22,1.74,1.74,0,0,1,1.34.58A1.8,1.8,0,0,1,39,12.49l-.31,1.77a.75.75,0,0,0,0,.21.78.78,0,0,0,0,.22,1.07,1.07,0,0,0,.07.19,1,1,0,0,0,.11.17.67.67,0,0,0,.15.14.54.54,0,0,0,.18.11l.19.06.22,0,.2,0,.22-.06a1,1,0,0,0,.18-.1l.17-.11L40.5,15a1.09,1.09,0,0,0,.13-.17l.09-.19a1.08,1.08,0,0,0,.05-.21,1.5,1.5,0,0,0,0-.2,1,1,0,0,0-.1-.41,1,1,0,0,0-.11-.17.83.83,0,0,0-.14-.13.62.62,0,0,0-.19-.12l-.2-.07a.18.18,0,0,1-.14-.1.33.33,0,0,1,0-.26.56.56,0,0,1,.48-.34h.06a1.18,1.18,0,0,1,.3.1,1.35,1.35,0,0,1,.26.15,1.26,1.26,0,0,1,.2.2,1.59,1.59,0,0,1,.17.25,2.49,2.49,0,0,1,.11.29,1.75,1.75,0,0,1,0,.32,2.22,2.22,0,0,1,0,.37,1.61,1.61,0,0,1-.1.36,3.4,3.4,0,0,1-.16.34,2.78,2.78,0,0,1-.23.31,1.85,1.85,0,0,1-.28.28,1.89,1.89,0,0,1-.31.22,1.54,1.54,0,0,1-.34.17,2,2,0,0,1-.37.11,1.64,1.64,0,0,1-.72,0,1.11,1.11,0,0,1-.29-.1.87.87,0,0,1-.26-.16.8.8,0,0,1-.21-.2,1.25,1.25,0,0,1-.16-.24,2.49,2.49,0,0,1-.11-.29,1.66,1.66,0,0,1,0-.33,2.07,2.07,0,0,1,0-.35l.31-1.78a1.27,1.27,0,0,0-.26-1,1.24,1.24,0,0,0-1-.43,1.66,1.66,0,0,0-1.6,1.35l-.57,3.19a.53.53,0,0,1-.48.42.24.24,0,0,1-.19-.08.26.26,0,0,1,0-.22l1.24-7.08a.54.54,0,0,1,.49-.42m0-.35a.88.88,0,0,0-.84.71L33.8,15.74a.57.57,0,0,0,.58.71.87.87,0,0,0,.83-.71l.57-3.19A1.32,1.32,0,0,1,37,11.49a.87.87,0,0,1,.87,1.06l-.31,1.78a1.49,1.49,0,0,0,0,.42,1.84,1.84,0,0,0,0,.41,2.09,2.09,0,0,0,.13.35,1.77,1.77,0,0,0,.21.32,1.34,1.34,0,0,0,.27.26,1.42,1.42,0,0,0,.32.19,1.71,1.71,0,0,0,.38.13,1.87,1.87,0,0,0,.42,0,2,2,0,0,0,.43,0,2.13,2.13,0,0,0,.43-.13,2.55,2.55,0,0,0,.75-.45,2.42,2.42,0,0,0,.32-.32,3.32,3.32,0,0,0,.26-.36,2.46,2.46,0,0,0,.19-.4,2.21,2.21,0,0,0,.12-.42,1.59,1.59,0,0,0,0-.43,1.75,1.75,0,0,0,0-.4,1.91,1.91,0,0,0-.13-.36,1.77,1.77,0,0,0-.21-.32,2.23,2.23,0,0,0-.27-.26,1.5,1.5,0,0,0-.33-.19,1.47,1.47,0,0,0-.37-.13h-.13a.89.89,0,0,0-.81.57.59.59,0,0,0,.41.83l.13,0,.1.06a.38.38,0,0,1,.09.09l.07.11a.61.61,0,0,1,.05.12.57.57,0,0,1,0,.13.38.38,0,0,1,0,.15.74.74,0,0,1,0,.14.52.52,0,0,1-.06.13.47.47,0,0,1-.09.12l-.1.11-.12.08-.14.07-.14,0h-.28l-.12,0-.12-.07a.3.3,0,0,1-.08-.08.41.41,0,0,1-.07-.11A.61.61,0,0,1,39,14.6a.53.53,0,0,1,0-.13.33.33,0,0,1,0-.14l.31-1.78a2,2,0,0,0-2-2.48,2.81,2.81,0,0,0-1.11.25l.29-1.66A.57.57,0,0,0,35.88,8Zm-5,.35a.24.24,0,0,1,.19.08.26.26,0,0,1,0,.22L31,9.66l-.08.41h1.59a.57.57,0,0,1,.24,0,.52.52,0,0,1,.18.13.38.38,0,0,1-.13.51.47.47,0,0,1-.31.12.26.26,0,0,1-.14,0l-.09-.07H30.77l-.05.29-.57,3.19a.74.74,0,0,0,0,.21.78.78,0,0,0,0,.22.92.92,0,0,0,.18.36.67.67,0,0,0,.15.14.54.54,0,0,0,.18.11.7.7,0,0,0,.19.06.83.83,0,0,0,.22,0l.2,0,.21-.06.19-.1a.64.64,0,0,0,.16-.11A1.06,1.06,0,0,0,32,15a1,1,0,0,0,.12-.17c0-.06.07-.12.1-.19s0-.13.05-.21a.69.69,0,0,0,0-.2,1.64,1.64,0,0,0,0-.22,2,2,0,0,0-.07-.19c0-.06-.07-.12-.11-.17l-.15-.14-.2-.12-.18-.06a.18.18,0,0,1-.15-.1.38.38,0,0,1,0-.26.55.55,0,0,1,.47-.34h.06a1.32,1.32,0,0,1,.3.09,1.28,1.28,0,0,1,.26.16,2,2,0,0,1,.21.2,2.79,2.79,0,0,1,.17.25,1.42,1.42,0,0,1,.1.29,1.17,1.17,0,0,1,0,.32,1.51,1.51,0,0,1,0,.37,2.42,2.42,0,0,1-.1.36,3.59,3.59,0,0,1-.17.34,1.92,1.92,0,0,1-.23.31,1.8,1.8,0,0,1-.27.28l-.32.23a2.53,2.53,0,0,1-.33.16,1.92,1.92,0,0,1-.37.11,2.33,2.33,0,0,1-.36,0,2.2,2.2,0,0,1-.36,0,1,1,0,0,1-.29-.1.76.76,0,0,1-.26-.16.8.8,0,0,1-.21-.2.91.91,0,0,1-.16-.24,1.45,1.45,0,0,1-.11-.29,1.15,1.15,0,0,1,0-.33,1.37,1.37,0,0,1,0-.35L30,11.2l.07-.42h-.85l-.08.05a.6.6,0,0,1-.22.06.25.25,0,0,1-.19-.08.4.4,0,0,1,.13-.51.84.84,0,0,1,.27-.16.73.73,0,0,1,.31-.07h.75l.06-.29.18-1.06a.54.54,0,0,1,.49-.42m0-.35a.88.88,0,0,0-.84.71L29.9,9.72h-.46a1.23,1.23,0,0,0-.44.09,1.39,1.39,0,0,0-.37.22.73.73,0,0,0-.17,1,.57.57,0,0,0,.46.21.81.81,0,0,0,.39-.1h.34l-.57,3.19a3,3,0,0,0,0,.42,1.84,1.84,0,0,0,.06.41,1.48,1.48,0,0,0,.13.35,1.32,1.32,0,0,0,.2.32,2.23,2.23,0,0,0,.27.26,1.77,1.77,0,0,0,.33.19,1.47,1.47,0,0,0,.37.13,2,2,0,0,0,.43,0,2.09,2.09,0,0,0,.43,0,2.35,2.35,0,0,0,.43-.13,3.49,3.49,0,0,0,.39-.19,3,3,0,0,0,.36-.26,2.34,2.34,0,0,0,.31-.32,2.42,2.42,0,0,0,.27-.36,2.46,2.46,0,0,0,.19-.4,3.31,3.31,0,0,0,.12-.42,3.22,3.22,0,0,0,0-.43,2.57,2.57,0,0,0,0-.4,1.92,1.92,0,0,0-.14-.36,1.32,1.32,0,0,0-.2-.32,2.23,2.23,0,0,0-.27-.26,2.63,2.63,0,0,0-.33-.2,2.11,2.11,0,0,0-.38-.12h-.13a.89.89,0,0,0-.8.57.59.59,0,0,0,.41.83l.12,0,.1.06a.45.45,0,0,1,.1.09l.07.11a.56.56,0,0,1,0,.12.59.59,0,0,1,0,.13.76.76,0,0,1,0,.15.74.74,0,0,1,0,.14l-.06.13-.09.12-.11.11-.12.08-.13.07-.14,0h-.29l-.12,0a.41.41,0,0,1-.11-.07l-.09-.08-.07-.11a.56.56,0,0,1,0-.12.51.51,0,0,1,0-.13.66.66,0,0,1,0-.14l.56-3.19h1.05a.62.62,0,0,0,.35.1A.84.84,0,0,0,33,11a.73.73,0,0,0,.18-1,1,1,0,0,0-.3-.23,1.06,1.06,0,0,0-.4-.08H31.31l.19-1.06A.57.57,0,0,0,30.92,8Z"/></g></g><g id="Amharic_Logotypes____1" data-name="Amharic Logotypes_ ቴሌብር_#1"><g class="cls-5"><path class="cls-6" d="M54,8.13a1,1,0,0,1,.45.1.81.81,0,0,1,.33.25.56.56,0,0,1-.15.74.71.71,0,0,1-.42.16.4.4,0,0,1-.34-.15l0-.05H52.64A1.52,1.52,0,0,0,51.2,10.4l-.6,3.44a1.09,1.09,0,0,0,.22.9,1.07,1.07,0,0,0,.84.37h1.87a.79.79,0,0,1,.32.07.69.69,0,0,1,.24.18.55.55,0,0,1-.16.74.62.62,0,0,1-.41.17.41.41,0,0,1-.24-.08l-.05,0H51.4a1.9,1.9,0,0,1-1.47-.64,2,2,0,0,1-.39-1.62l.61-3.44a2.91,2.91,0,0,1,2.74-2.33H54M54,8H52.89A3.09,3.09,0,0,0,50,10.43l-.61,3.44a2,2,0,0,0,2,2.48h1.77a.68.68,0,0,0,.35.1.81.81,0,0,0,.53-.21.72.72,0,0,0,.18-1,.76.76,0,0,0-.3-.23,1,1,0,0,0-.4-.08H51.66a.87.87,0,0,1-.88-1.06l.6-3.44a1.34,1.34,0,0,1,1.26-1.07h1a.59.59,0,0,0,.47.21.86.86,0,0,0,.54-.21.73.73,0,0,0,.17-1,1.14,1.14,0,0,0-.39-.3A1.17,1.17,0,0,0,54,8Zm-7.44.18a2.17,2.17,0,0,1,1.7.75,2.22,2.22,0,0,1,.45,1.87l-.87,5a.72.72,0,0,1-.66.56.42.42,0,0,1-.32-.14.48.48,0,0,1-.08-.36l.88-5a1.43,1.43,0,0,0-.29-1.16,1.37,1.37,0,0,0-1.06-.47,2,2,0,0,0-1.85,1.57l-.88,5a.7.7,0,0,1-.65.56.42.42,0,0,1-.32-.14.48.48,0,0,1-.08-.36l.63-3.54,0-.21h-.43a.35.35,0,0,0-.23.08.61.61,0,0,1-.41.16.45.45,0,0,1-.33-.13.56.56,0,0,1,.16-.75A1.62,1.62,0,0,1,43,11h.37l0-.16a3.33,3.33,0,0,1,3.15-2.68m0-.18a3.54,3.54,0,0,0-3.34,2.83H43a1.79,1.79,0,0,0-1.18.46.73.73,0,0,0-.18,1,.59.59,0,0,0,.47.21.81.81,0,0,0,.53-.21.18.18,0,0,1,.11,0h.21l-.62,3.54a.57.57,0,0,0,.58.71.88.88,0,0,0,.84-.71l.87-5h0a1.78,1.78,0,0,1,1.67-1.42,1.17,1.17,0,0,1,1.17,1.42h0l-.88,5a.57.57,0,0,0,.58.71.87.87,0,0,0,.84-.71l.87-5h0A2.31,2.31,0,0,0,46.51,8Zm-10.63.18a.42.42,0,0,1,.32.14.42.42,0,0,1,.08.35L36,10.29l-.06.34.31-.14a2.65,2.65,0,0,1,1-.23,1.9,1.9,0,0,1,1.47.64,2,2,0,0,1,.39,1.62l-.32,1.77a1.09,1.09,0,0,0,0,.18.57.57,0,0,0,0,.18.53.53,0,0,0,0,.15l.09.14.12.12.15.09.16,0,.18,0,.17,0,.18,0a.8.8,0,0,0,.16-.08l.15-.1.12-.13.11-.15a.6.6,0,0,0,.08-.16s0-.11,0-.18a1,1,0,0,0,0-.17.57.57,0,0,0,0-.18.53.53,0,0,0-.05-.15l-.09-.14-.12-.12-.15-.09L40,13.45a.36.36,0,0,1-.26-.18.49.49,0,0,1,0-.41.7.7,0,0,1,.63-.45h.09a2.24,2.24,0,0,1,.34.11,1.75,1.75,0,0,1,.29.18,1.7,1.7,0,0,1,.24.22,2.29,2.29,0,0,1,.18.29,1.75,1.75,0,0,1,.12.32,1.49,1.49,0,0,1,0,.36,2.47,2.47,0,0,1,0,.39,2.62,2.62,0,0,1-.11.4,3,3,0,0,1-.18.36,3.33,3.33,0,0,1-.24.34,2.13,2.13,0,0,1-.3.3,2.8,2.8,0,0,1-.33.24,2.53,2.53,0,0,1-.37.18,2.22,2.22,0,0,1-.39.12,2.71,2.71,0,0,1-.4,0,2.58,2.58,0,0,1-.39,0,1.83,1.83,0,0,1-.33-.11,1.19,1.19,0,0,1-.29-.18,1.31,1.31,0,0,1-.24-.23,1.34,1.34,0,0,1-.18-.28,1.75,1.75,0,0,1-.12-.32,1.36,1.36,0,0,1,0-.36,2.56,2.56,0,0,1,0-.39l.31-1.77a1.1,1.1,0,0,0-.22-.91,1.06,1.06,0,0,0-.83-.37,1.51,1.51,0,0,0-1.44,1.21L35,15.71a.7.7,0,0,1-.65.56.4.4,0,0,1-.4-.5l1.25-7.08a.7.7,0,0,1,.65-.56m0-.18a.88.88,0,0,0-.84.71L33.8,15.74a.57.57,0,0,0,.58.71.87.87,0,0,0,.83-.71l.57-3.19A1.32,1.32,0,0,1,37,11.49a.87.87,0,0,1,.87,1.06l-.31,1.78a1.49,1.49,0,0,0,0,.42,1.84,1.84,0,0,0,0,.41,2.09,2.09,0,0,0,.13.35,1.77,1.77,0,0,0,.21.32,1.34,1.34,0,0,0,.27.26,1.42,1.42,0,0,0,.32.19,1.71,1.71,0,0,0,.38.13,1.87,1.87,0,0,0,.42,0,2,2,0,0,0,.43,0,2.13,2.13,0,0,0,.43-.13,2.55,2.55,0,0,0,.75-.45,2.42,2.42,0,0,0,.32-.32,3.32,3.32,0,0,0,.26-.36,2.46,2.46,0,0,0,.19-.4,2.21,2.21,0,0,0,.12-.42,1.59,1.59,0,0,0,0-.43,1.75,1.75,0,0,0,0-.4,1.91,1.91,0,0,0-.13-.36,1.77,1.77,0,0,0-.21-.32,2.23,2.23,0,0,0-.27-.26,1.5,1.5,0,0,0-.33-.19,1.47,1.47,0,0,0-.37-.13h-.13a.89.89,0,0,0-.81.57.59.59,0,0,0,.41.83l.13,0,.1.06a.38.38,0,0,1,.09.09l.07.11a.61.61,0,0,1,.05.12.57.57,0,0,1,0,.13.38.38,0,0,1,0,.15.74.74,0,0,1,0,.14.52.52,0,0,1-.06.13.47.47,0,0,1-.09.12l-.1.11-.12.08-.14.07-.14,0h-.28l-.12,0-.12-.07a.3.3,0,0,1-.08-.08.41.41,0,0,1-.07-.11A.61.61,0,0,1,39,14.6a.53.53,0,0,1,0-.13.33.33,0,0,1,0-.14l.31-1.78a2,2,0,0,0-2-2.48,2.81,2.81,0,0,0-1.11.25l.29-1.66A.57.57,0,0,0,35.88,8Zm-5,.18a.42.42,0,0,1,.32.14.42.42,0,0,1,.08.35l-.19,1.07,0,.21h1.39a.83.83,0,0,1,.32.07.51.51,0,0,1,.08.92.61.61,0,0,1-.42.16.38.38,0,0,1-.24-.07l0,0H30.91l0,.15-.56,3.19a.55.55,0,0,0,0,.18,1.1,1.1,0,0,0,0,.18.52.52,0,0,0,.06.15.42.42,0,0,0,.09.14.46.46,0,0,0,.12.12l.15.09.15,0,.19,0,.17,0,.18,0,.16-.08.14-.1.13-.13.11-.15a1.26,1.26,0,0,0,.07-.16.78.78,0,0,0,.05-.18.5.5,0,0,0,0-.17.55.55,0,0,0,0-.18.34.34,0,0,0-.06-.15.42.42,0,0,0-.09-.14l-.12-.12a.66.66,0,0,0-.15-.09l-.15-.05a.36.36,0,0,1-.26-.18.48.48,0,0,1,0-.41.71.71,0,0,1,.63-.45H32a1.83,1.83,0,0,1,.33.11,1.49,1.49,0,0,1,.3.18,1.21,1.21,0,0,1,.23.22,1.6,1.6,0,0,1,.19.29,1.75,1.75,0,0,1,.12.32,1.47,1.47,0,0,1,0,.36,1.26,1.26,0,0,1,0,.39,2.6,2.6,0,0,1-.1.4,3,3,0,0,1-.18.36,2.3,2.3,0,0,1-.25.34,2.07,2.07,0,0,1-.29.3,2.27,2.27,0,0,1-.34.24,2,2,0,0,1-.36.18,3,3,0,0,1-.4.12,2.58,2.58,0,0,1-.39,0,2.45,2.45,0,0,1-.39,0,2.24,2.24,0,0,1-.34-.11,1.75,1.75,0,0,1-.29-.18,1.31,1.31,0,0,1-.24-.23,1.67,1.67,0,0,1-.18-.28,1.21,1.21,0,0,1-.11-.32,1.36,1.36,0,0,1-.05-.36,1.29,1.29,0,0,1,0-.39l.56-3.19,0-.22h-.61l0,0a.58.58,0,0,1-.3.09.38.38,0,0,1-.32-.15.54.54,0,0,1,.15-.74,1.18,1.18,0,0,1,.32-.19,1,1,0,0,1,.37-.08h.61l0-.15.19-1.06a.7.7,0,0,1,.65-.56m0-.18a.88.88,0,0,0-.84.71L29.9,9.72h-.46a1.23,1.23,0,0,0-.44.09,1.39,1.39,0,0,0-.37.22.73.73,0,0,0-.17,1,.57.57,0,0,0,.46.21.81.81,0,0,0,.39-.1h.34l-.57,3.19a3,3,0,0,0,0,.42,1.84,1.84,0,0,0,.06.41,1.48,1.48,0,0,0,.13.35,1.32,1.32,0,0,0,.2.32,2.23,2.23,0,0,0,.27.26,1.77,1.77,0,0,0,.33.19,1.47,1.47,0,0,0,.37.13,2,2,0,0,0,.43,0,2.09,2.09,0,0,0,.43,0,2.35,2.35,0,0,0,.43-.13,3.49,3.49,0,0,0,.39-.19,3,3,0,0,0,.36-.26,2.34,2.34,0,0,0,.31-.32,2.42,2.42,0,0,0,.27-.36,2.46,2.46,0,0,0,.19-.4,3.31,3.31,0,0,0,.12-.42,3.22,3.22,0,0,0,0-.43,2.57,2.57,0,0,0,0-.4,1.92,1.92,0,0,0-.14-.36,1.32,1.32,0,0,0-.2-.32,2.23,2.23,0,0,0-.27-.26,2.63,2.63,0,0,0-.33-.2,2.11,2.11,0,0,0-.38-.12h-.13a.89.89,0,0,0-.8.57.59.59,0,0,0,.41.83l.12,0,.1.06a.45.45,0,0,1,.1.09l.07.11a.56.56,0,0,1,0,.12.59.59,0,0,1,0,.13.76.76,0,0,1,0,.15.74.74,0,0,1,0,.14l-.06.13-.09.12-.11.11-.12.08-.13.07-.14,0h-.29l-.12,0a.41.41,0,0,1-.11-.07l-.09-.08-.07-.11a.56.56,0,0,1,0-.12.51.51,0,0,1,0-.13.66.66,0,0,1,0-.14l.56-3.19h1.05a.62.62,0,0,0,.35.1A.84.84,0,0,0,33,11a.73.73,0,0,0,.18-1,1,1,0,0,0-.3-.23,1.06,1.06,0,0,0-.4-.08H31.31l.19-1.06A.57.57,0,0,0,30.92,8Z"/></g></g><path id="LogoMark_Icon__3" data-name="LogoMark/Icon_#3" class="cls-7" d="M9.2,12.56H2.11a.88.88,0,0,0-.83.71.58.58,0,0,0,.58.71,5.21,5.21,0,0,1,5.26,6.37.58.58,0,0,0,.58.71.88.88,0,0,0,.83-.71l1.25-7.08A.58.58,0,0,0,9.2,12.56Zm2.5-2.13L13,3.35a.87.87,0,0,1,.83-.71.58.58,0,0,1,.59.71,5.21,5.21,0,0,0,5.25,6.37h1.77a.58.58,0,0,1,.59.71.89.89,0,0,1-.84.71H12.28A.58.58,0,0,1,11.7,10.43Zm4.67,17.72A6.37,6.37,0,0,1,10,20.35l1.25-7.08a.88.88,0,0,1,.83-.71H22.66a.58.58,0,0,1,.59.71.88.88,0,0,1-.83.71H18.87a8,8,0,0,0-7.5,6.37,5.21,5.21,0,0,0,5.22,6.38,5.85,5.85,0,0,0,5.11-3.2A4.29,4.29,0,0,0,22,23a4.5,4.5,0,0,0,.21-.74.09.09,0,0,1,0-.05,3,3,0,0,0-3.06-3.67,3.56,3.56,0,0,0-3.36,2.86,1.78,1.78,0,0,0,1.8,2.19A.41.41,0,0,1,18,24a.63.63,0,0,1-.58.5,2.6,2.6,0,0,1-2.62-3.19A4.79,4.79,0,0,1,19.3,17.5a3.83,3.83,0,0,1,3.87,4.69A7.36,7.36,0,0,1,16.37,28.15Z"/><g id="LogoMark_Icon__2" data-name="LogoMark/Icon_#2"><g class="cls-8"><path class="cls-7" d="M9.06,13.27,7.89,19.92a6,6,0,0,0-1.33-4.56A5.94,5.94,0,0,0,2.1,13.27h7m.14-.71H2.11a.88.88,0,0,0-.83.71.58.58,0,0,0,.58.71,5.21,5.21,0,0,1,5.26,6.37.58.58,0,0,0,.58.71.88.88,0,0,0,.83-.71l1.25-7.08a.58.58,0,0,0-.58-.71Zm4.39-8.78a6.05,6.05,0,0,0,1.34,4.56,5.94,5.94,0,0,0,4.56,2.09H12.42l1.17-6.65m.19-1.14a.87.87,0,0,0-.83.71L11.7,10.43a.58.58,0,0,0,.58.71h8.86a.89.89,0,0,0,.84-.71.58.58,0,0,0-.59-.71H19.62a5.21,5.21,0,0,1-5.25-6.37.58.58,0,0,0-.59-.71Zm5,10.63a8.73,8.73,0,0,0-7.95,6.39l1.11-6.27a.17.17,0,0,1,.13-.12h6.71M10.57,21a5.88,5.88,0,0,0,5.95,6.41h-.15a5.8,5.8,0,0,1-4.53-2A5.91,5.91,0,0,1,10.57,21m12.09-8.47H12a.88.88,0,0,0-.83.71L10,20.35a6.37,6.37,0,0,0,6.42,7.8,7.36,7.36,0,0,0,6.8-6A3.83,3.83,0,0,0,19.3,17.5a4.79,4.79,0,0,0-4.53,3.85,2.6,2.6,0,0,0,2.62,3.19A.63.63,0,0,0,18,24a.41.41,0,0,0-.41-.5,1.78,1.78,0,0,1-1.8-2.19,3.56,3.56,0,0,1,3.36-2.86,3,3,0,0,1,3.06,3.67.09.09,0,0,0,0,.05A4.5,4.5,0,0,1,22,23a4.29,4.29,0,0,1-.26.58,5.85,5.85,0,0,1-5.11,3.2,5.21,5.21,0,0,1-5.22-6.38A8,8,0,0,1,18.87,14h3.55a.88.88,0,0,0,.83-.71.58.58,0,0,0-.59-.71Z"/></g></g><g id="LogoMark_Icon__1" data-name="LogoMark/Icon_#1"><g class="cls-9"><path class="cls-7" d="M9.2,12.91a.24.24,0,0,1,.19.08.26.26,0,0,1,0,.22L8.19,20.29a.54.54,0,0,1-.49.42.24.24,0,0,1-.19-.08.26.26,0,0,1,0-.22,5.82,5.82,0,0,0-1.18-4.83,5.69,5.69,0,0,0-4.43-2,.26.26,0,0,1-.19-.08.24.24,0,0,1,0-.21.53.53,0,0,1,.48-.42H9.2m0-.35H2.11a.88.88,0,0,0-.83.71.58.58,0,0,0,.58.71,5.21,5.21,0,0,1,5.26,6.37.58.58,0,0,0,.58.71.88.88,0,0,0,.83-.71l1.25-7.08a.58.58,0,0,0-.58-.71ZM13.78,3a.23.23,0,0,1,.19.08.25.25,0,0,1,0,.21A5.81,5.81,0,0,0,15.2,8.11a5.63,5.63,0,0,0,4.42,2h1.77a.22.22,0,0,1,.19.07.27.27,0,0,1,.05.22.53.53,0,0,1-.49.41H12.28a.25.25,0,0,1-.19-.07.26.26,0,0,1,0-.22L13.3,3.41A.54.54,0,0,1,13.78,3m0-.35a.87.87,0,0,0-.83.71L11.7,10.43a.58.58,0,0,0,.58.71h8.86a.89.89,0,0,0,.84-.71.58.58,0,0,0-.59-.71H19.62a5.21,5.21,0,0,1-5.25-6.37.58.58,0,0,0-.59-.71Zm8.88,10.27a.26.26,0,0,1,.2.08.3.3,0,0,1,0,.22.53.53,0,0,1-.48.41H18.87A8.31,8.31,0,0,0,11,20.29a5.79,5.79,0,0,0,1.17,4.82,5.64,5.64,0,0,0,4.42,2A6.15,6.15,0,0,0,22,23.7a6,6,0,0,0,.28-.63,5.66,5.66,0,0,0,.22-.79l-.35-.07h.36a3.53,3.53,0,0,0-.74-2.91,3.41,3.41,0,0,0-2.67-1.17,3.92,3.92,0,0,0-3.71,3.15,2.22,2.22,0,0,0,.45,1.85,2.18,2.18,0,0,0,1.7.76s.05,0,.05,0a.08.08,0,0,1,0,.07.27.27,0,0,1-.23.2,2.27,2.27,0,0,1-1.8-.79,2.38,2.38,0,0,1-.48-2,4.45,4.45,0,0,1,4.19-3.56,3.54,3.54,0,0,1,2.78,1.23,3.67,3.67,0,0,1,.74,3.05,6.94,6.94,0,0,1-6.45,5.66,6.14,6.14,0,0,1-4.8-2.11,6.35,6.35,0,0,1-1.27-5.27l1.25-7.08a.54.54,0,0,1,.48-.42H22.66m0-.35H12a.88.88,0,0,0-.83.71L10,20.35a6.37,6.37,0,0,0,6.42,7.8,7.36,7.36,0,0,0,6.8-6A3.83,3.83,0,0,0,19.3,17.5a4.79,4.79,0,0,0-4.53,3.85,2.6,2.6,0,0,0,2.62,3.19A.63.63,0,0,0,18,24a.41.41,0,0,0-.41-.5,1.78,1.78,0,0,1-1.8-2.19,3.56,3.56,0,0,1,3.36-2.86,3,3,0,0,1,3.06,3.67.09.09,0,0,0,0,.05A4.5,4.5,0,0,1,22,23a4.29,4.29,0,0,1-.26.58,5.85,5.85,0,0,1-5.11,3.2,5.21,5.21,0,0,1-5.22-6.38A8,8,0,0,1,18.87,14h3.55a.88.88,0,0,0,.83-.71.58.58,0,0,0-.59-.71Z"/></g></g></g></g></g></svg>