<svg id="Layer_1" data-name="Layer 1" xmlns="http://www.w3.org/2000/svg" viewBox="0 0 1200 1200"><defs><style>.cls-1{fill:#fff;}.cls-2{fill:#1aa84f;}.cls-3{fill:#8ec044;}.cls-4{fill:#168ece;}</style></defs><rect class="cls-1" x="26.41" y="26.41" width="1147.19" height="1147.19" rx="573.59"/><path class="cls-2" d="M795.72,533.92V522.6c21-11.18,26-17.51,20.3-28.8-12.79-25.3-27.88-3.34-41.22-.67-3.36-4.88-6.7-9.68-10-14.42a150.22,150.22,0,0,0-57.67-49.62,156.47,156.47,0,0,0-68.81-15.92h-76.7a156.47,156.47,0,0,0-68.81,15.92,150.28,150.28,0,0,0-57.66,49.62q-4.92,7.11-10,14.42c-13.34-2.67-28.43-24.63-41.22.67-5.69,11.29-.69,17.62,20.3,28.8v11.32c-22.28,9-34.12,27.34-34.44,49.1l2.73,107v35.7a19.58,19.58,0,0,0,19.58,19.57h69.13a19.61,19.61,0,0,0,19.6-19.6v-5.55l107.17.23v0l12,0,12,0v0l107.17-.23v5.55a19.61,19.61,0,0,0,19.61,19.6h69.12a19.57,19.57,0,0,0,19.58-19.57V690l2.73-107C829.84,561.26,818,543,795.72,533.92ZM556.56,611.53H433.94c-2.73-4.11-5.83-7.82-7.9-12-5.9-12-.38-21.85,13-23.78a32.72,32.72,0,0,1,7.13-.25l92.23,8C550.78,584.54,557.42,594.57,556.56,611.53Zm64.79-109.89c-3,8.65-5.87,17.05-8.69,25.27H587.35l-8.7-25.27a16.5,16.5,0,0,0-15.58-11.12H530.61a16.44,16.44,0,0,0-15.81,11.85L507.64,527H460.76c-2.19-8.63-.26-18.34,3.42-27.57,8.22-20.81,24.43-37.48,44.47-47.43a156.95,156.95,0,0,1,69.58-16.29h43.54A156.95,156.95,0,0,1,691.36,452c20,9.95,36.24,26.62,44.46,47.43,3.68,9.23,5.61,18.94,3.42,27.57H692.36l-7.16-24.6a16.44,16.44,0,0,0-15.81-11.85H636.93A16.5,16.5,0,0,0,621.35,501.64ZM774,599.52c-2.07,4.19-5.18,7.9-7.91,12H643.44c-.86-17,5.78-27,18.14-28.08l92.24-8a32.65,32.65,0,0,1,7.12.25C774.34,577.67,779.86,587.5,774,599.52Z"/><path class="cls-3" d="M811.48,451.62c-58.94-59.35-128.66-87.28-212.33-87.29s-153.42,27.72-211.86,87.11c-7.27-6.36-13.78-13-21.18-18.35-16.45-12-35.31-18.48-55.21-21.72-56.15-9.13-110.85-6.27-162.37,20.88a70.47,70.47,0,0,0-7.09,4.73c-2.3,1.6-4.54,3.27-7.25,5.22,7.8-40.88,68.29-149.49,157-218.84,73.68-57.59,156.69-93.82,249.23-104.13,266.19-29.66,464.12,146.18,525.37,324.22-38.8-29.32-83-36.62-129.49-36.44C889.41,407.2,845.29,414.51,811.48,451.62Z"/><path d="M597.8,831.49l4.12,4.17.28-.41-4.27-.1.34.61c0-1.52.05-3,.08-4.57Z"/><path class="cls-4" d="M692.11,1077.15a489.77,489.77,0,0,1-176.38-2.28c-112.46-21.91-208.53-73.33-288.65-160-34.31-37.1-63-78.56-82.69-125.59-3.4-8.14-6-16.64-8.66-25.06-2.34-7.37-2.83-14.58,4.53-19.77,7.67-5.41,15-2.92,20.84,2.6,16.55,15.77,33,31.72,48.7,48.31,32.37,34.14,64.92,68.09,104.06,94.7,49,33.29,102.29,55.08,162.38,54.25,41.13-.57,80.84-8.9,114.12-35.57,7.49-6,14.76-13.21,19.6-21.37,10.5-17.69.8-36.29-19.42-39.35-25.83-3.91-51.11,1.41-76.46,4.87-26.37,3.6-52.74,6.6-79.32,2.74A89.06,89.06,0,0,1,416.18,851c-15.27-5.77-20.45-19.83-12.68-34.22a50.56,50.56,0,0,1,27.12-23.51c43.08-16.52,86.66-31.19,132.66-37.59,55.45-7.72,108.83-.38,160.77,20,20.68,8.12,41.25,17.22,62.7,22.52,34.72,8.58,67.11-1,97.21-19,27.75-16.59,54.82-34.38,83.17-49.84,33.06-18,68.65-9,88.91,21,12.37,18.33,10.74,38.56,7.24,59.23-5.4,31.86-23.34,57.06-41.11,82.73-23.62,34.12-56.91,57.52-89.13,82-46.54,35.35-98.12,61.9-153.27,80.8A581.91,581.91,0,0,1,698.33,1076Q695.22,1076.61,692.11,1077.15Z"/><path class="cls-4" d="M304.12,872.56c-13.39-10.33-26.31-19.4-38.21-29.65-41.36-35.63-66.76-80.34-74-134.71-.71-5.31.8-13.86,4.31-16,4.24-2.63,12.3-1.61,17.67.49,22.85,8.93,34.83,28.74,45.87,49,21.67,39.67,34.7,82.48,44.91,126.26C304.88,868.67,304.51,869.6,304.12,872.56Z"/><path class="cls-4" d="M334.24,897.35c-2.27-3.05-5.91-6.2-7.33-10.15-15.25-42.41-31.05-84.72-36.84-129.77-.55-4.34,1.18-11.65,4.06-13,3.27-1.6,10.25.52,13.5,3.41,20.61,18.35,29.81,42.85,33.48,69.28,3.1,22.25,4.17,44.78,6,67.2C347.69,891.7,344.87,896.75,334.24,897.35Z"/></svg>